{"title":"The Three Amigos Outrageous 2003 DVDRIP [MP4]- trother","uid":6783066,"size":1085157003,"categoryP":"video","categoryS":"movies","magnet":"?xt=urn:btih:e15863ebd1941e8d2c307fc712a1129e85978e0d&amp;dn=The+Three+Amigos+Outrageous+2003+DVDRIP+%5BMP4%5D-+trother&amp;tr=udp%3A%2F%2Ftracker.openbittorrent.com%3A80&amp;tr=udp%3A%2F%2Fopen.demonii.com%3A1337&amp;tr=udp%3A%2F%2Ftracker.coppersurfer.tk%3A6969&amp;tr=udp%3A%2F%2Fexodus.desync.com%3A6969","seeders":4,"leechers":0,"uploader":"trother","files":-1,"time":1319983657,"description":"            @@                       @@     @@\n           @@@                      @@@    @@@\n          @@@@@@  @@@@@    @@@@@   @@@@@@ @@@        @@@@@    @@@@@\n          @@@@@  @@@@@@@  @@@ @@@  @@@@@  @@@       @@@ @@@  @@@@@@@\n           @@@   @@@  !@ @@@   @@@  @@@   @@@@@@   @@@   @@@ @@@  !@\n           @@@   @@@     @@@   @@@  @@@   @@@@@@@  @@@   @@@ @@@\n           @!@   @!@     @!@   @!@  @!@   @!@  @!@ @!@@ @!@  @!@\n           !!@   !!@     !!@   !!@  !!@   !!@  !!@ !!@@      !!@\n            :!:   :!:     :!: :!:    :!:  :!:  :!:  :!:! :!   :!:\n             ::    ::      ::::       ::   ::  :::   ::::      ::\n                                               :::\n           ~The Three Amigos Outrageous 2003 DVDRIP [MP4]- trother~   \n                                           :::\n                                          :::\n\n\n\n*******************************************************************************\nIMDb:               &lt;a href=&quot; http://www.imdb.com/title/tt0301934/&quot; rel=&quot;nofollow&quot; target=&quot;_NEW&quot;&gt; http://www.imdb.com/title/tt0301934/&lt;/a&gt;    \n*******************************************************************************\n\n\n\n            RELEASE.: The Three Amigos Outrageous 2003 DVDRIP\n            SOURCE..: DVD9 PAL\n            DATE....: 30/10/2011 \n            GENRE...: Comedy\n\n\n\nGeneral\n===============\nComplete name                    : The Three Amigos Outrageous 2003 DVDRIP [MP4]- trother.m4v\nFormat                           : MPEG-4\nFormat profile                   : Base Media / Version 2\nCodec ID                         : mp42\nFile size                        : 1.01 GiB\nDuration                         : 1h 11mn\nOverall bit rate                 : 2 027 Kbps\n\n\n\nVideo\n===============\nID                               : 1\nFormat                           : AVC\nFormat/Info                      : Advanced Video Codec\nFormat profile                   : &lt;a class=&quot;__cf_email__&quot; href=&quot;/cdn-cgi/l/email-protection&quot; data-cfemail=&quot;d39eb2babd939fe0fde3&quot;&gt;[email&amp;#160;protected]&lt;/a&gt;&lt;script cf-hash='f9e31' type=&quot;text/javascript&quot;&gt;\n/* &lt;![CDATA[ */!function(){try{var t=&quot;currentScript&quot;in document?document.currentScript:function(){for(var t=document.getElementsByTagName(&quot;script&quot;),e=t.length;e--;)if(t[e].getAttribute(&quot;cf-hash&quot;))return t[e]}();if(t&amp;&amp;t.previousSibling){var e,r,n,i,c=t.previousSibling,a=c.getAttribute(&quot;data-cfemail&quot;);if(a){for(e=&quot;&quot;,r=parseInt(a.substr(0,2),16),n=2;a.length-n;n+=2)i=parseInt(a.substr(n,2),16)^r,e+=String.fromCharCode(i);e=document.createTextNode(e),c.parentNode.replaceChild(e,c)}}}catch(u){}}();/* ]]&gt; */&lt;/script&gt;\nFormat settings, CABAC           : Yes\nFormat settings, ReFrames        : 4 frames\nCodec ID                         : avc1\nCodec ID/Info                    : Advanced Video Coding\nDuration                         : 1h 11mn\nBit rate mode                    : Variable\nBit rate                         : 1 863 Kbps\nWidth                            : 720 pixels\nHeight                           : 480 pixels\nDisplay aspect ratio             : 16:9\nFrame rate mode                  : Variable\nFrame rate                       : 24.988 fps\nMinimum frame rate               : 5.000 fps\nMaximum frame rate               : 25.000 fps\nStandard                         : NTSC\nColor space                      : YUV\nChroma subsampling               : 4:2:0\nBit depth                        : 8 bits\nScan type                        : Progressive\nBits/(Pixel*Frame)               : 0.216\nStream size                      : 951 MiB (92%)\n\n\n\nAudio\n===============\nID                               : 2\nFormat                           : AAC\nFormat/Info                      : Advanced Audio Codec\nFormat profile                   : LC\nCodec ID                         : 40\nDuration                         : 1h 11mn\nBit rate mode                    : Variable\nBit rate                         : 160 Kbps\nMaximum bit rate                 : 242 Kbps\nChannel(s)                       : 2 channels\nChannel positions                : Front: L R\nSampling rate                    : 48.0 KHz\nCompression mode                 : Lossy\nStream size                      : 81.7 MiB (8%)\n\n\n\nTHE THREE AMIGOS (Carlos Mencia, Pablo Francisco, Freddy Soto) brings you all the hilarious and outrageous comedy from a red-hot trio of Latino headliners on their sold-out national tour! With the biting social commentary of Carlos Mencia (29 PALMS, COMIC RELIEF VI), the off-the-wall sound effects of Pablo Francisco (MAD TV, COMEDY CENTRAL PRESENTS: PABLO FRANCISCO), and the hysterical family humor of Freddy Soto (SPANGLISH), it\\'s all-out stand-up hilarity like you\\'ve never seen before! Directed by C.B. Harding (BLUE COLLAR COMEDY TOUR, THE OSBOURNES FAMILY CHRISTMAS SPECIAL) -- you\\'ll laugh till it hurts as these three fresh and original comics do what they do best -- live on stage! \n\n\nEnjoy and please comment!","torrent":{"xt":"urn:btih:e15863ebd1941e8d2c307fc712a1129e85978e0d","amp;dn":"The+Three+Amigos+Outrageous+2003+DVDRIP+%5BMP4%5D-+trother","amp;tr":["udp%3A%2F%2Ftracker.openbittorrent.com%3A80","udp%3A%2F%2Fopen.demonii.com%3A1337","udp%3A%2F%2Ftracker.coppersurfer.tk%3A6969","udp%3A%2F%2Fexodus.desync.com%3A6969"],"infoHash":"e15863ebd1941e8d2c307fc712a1129e85978e0d","infoHashBuffer":{"type":"Buffer","data":[225,88,99,235,209,148,30,141,44,48,127,199,18,161,18,158,133,151,142,13]},"announce":[],"urlList":[]}}